{
	"asset":{
		"generator":"Khronos glTF Blender I/O v3.6.27",
		"version":"2.0"
	},
	"scene":0,
	"scenes":[
		{
			"name":"Scene",
			"nodes":[
				0
			]
		}
	],
	"nodes":[
		{
			"mesh":0,
			"name":"AK-47",
			"rotation":[
				-0.032116685062646866,
				-0.9991774559020996,
				-0.007250015623867512,
				0.023675644770264626
			],
			"scale":[
				0.2040426880121231,
				0.2040426880121231,
				0.2040426880121231
			],
			"translation":[
				-0.17425645887851715,
				1.602073073387146,
				0.347900390625
			]
		}
	],
	"materials":[
		{
			"doubleSided":true,
			"emissiveFactor":[
				1,
				1,
				1
			],
			"emissiveTexture":{
				"index":0
			},
			"name":"ak_material",
			"pbrMetallicRoughness":{
				"baseColorFactor":[
					0,
					0,
					0,
					1
				]
			}
		}
	],
	"meshes":[
		{
			"name":"ak_test",
			"primitives":[
				{
					"attributes":{
						"POSITION":0,
						"NORMAL":1,
						"TEXCOORD_0":2
					},
					"indices":3,
					"material":0
				}
			]
		}
	],
	"textures":[
		{
			"sampler":0,
			"source":0
		}
	],
	"images":[
		{
			"mimeType":"image/png",
			"name":"AKTexture",
			"uri":"AKTexture.png"
		}
	],
	"accessors":[
		{
			"bufferView":0,
			"componentType":5126,
			"count":1166,
			"max":[
				0.0823388621211052,
				0.4549744725227356,
				1.729773998260498
			],
			"min":[
				-0.08233895152807236,
				-0.8797827363014221,
				-2.9075019359588623
			],
			"type":"VEC3"
		},
		{
			"bufferView":1,
			"componentType":5126,
			"count":1166,
			"type":"VEC3"
		},
		{
			"bufferView":2,
			"componentType":5126,
			"count":1166,
			"type":"VEC2"
		},
		{
			"bufferView":3,
			"componentType":5123,
			"count":1956,
			"type":"SCALAR"
		}
	],
	"bufferViews":[
		{
			"buffer":0,
			"byteLength":13992,
			"byteOffset":0,
			"target":34962
		},
		{
			"buffer":0,
			"byteLength":13992,
			"byteOffset":13992,
			"target":34962
		},
		{
			"buffer":0,
			"byteLength":9328,
			"byteOffset":27984,
			"target":34962
		},
		{
			"buffer":0,
			"byteLength":3912,
			"byteOffset":37312,
			"target":34963
		}
	],
	"samplers":[
		{
			"magFilter":9729,
			"minFilter":9987
		}
	],
	"buffers":[
		{
			"byteLength":41224,
			"uri":"ak.bin"
		}
	]
}
