{
	"asset":{
		"generator":"Khronos glTF Blender I/O v3.6.27",
		"version":"2.0"
	},
	"scene":0,
	"scenes":[
		{
			"name":"Scene",
			"nodes":[
				0,
				1
			]
		}
	],
	"nodes":[
		{
			"mesh":0,
			"name":"Silver Fern"
		},
		{
			"mesh":1,
			"name":"Nikau"
		}
	],
	"materials":[
		{
			"alphaCutoff":0.5,
			"alphaMode":"MASK",
			"name":"silver_fern",
			"pbrMetallicRoughness":{
				"baseColorTexture":{
					"index":0
				},
				"metallicFactor":0
			}
		},
		{
			"alphaCutoff":0.5,
			"alphaMode":"MASK",
			"doubleSided":true,
			"name":"nikau",
			"pbrMetallicRoughness":{
				"baseColorTexture":{
					"index":1
				},
				"metallicFactor":0
			}
		}
	],
	"meshes":[
		{
			"name":"silver_fern",
			"primitives":[
				{
					"attributes":{
						"POSITION":0,
						"NORMAL":1,
						"TEXCOORD_0":2
					},
					"indices":3,
					"material":0
				}
			]
		},
		{
			"name":"nikau",
			"primitives":[
				{
					"attributes":{
						"POSITION":4,
						"NORMAL":5,
						"TEXCOORD_0":6
					},
					"indices":7,
					"material":1
				}
			]
		}
	],
	"textures":[
		{
			"sampler":0,
			"source":0
		},
		{
			"sampler":0,
			"source":1
		}
	],
	"images":[
		{
			"mimeType":"image/png",
			"name":"fern_diffuse",
			"uri":"fern_diffuse.png"
		},
		{
			"mimeType":"image/png",
			"name":"nikau_diffuse",
			"uri":"nikau_diffuse.png"
		}
	],
	"accessors":[
		{
			"bufferView":0,
			"componentType":5126,
			"count":80,
			"max":[
				1.6204869747161865,
				1.0420315265655518,
				1.629105806350708
			],
			"min":[
				-1.3096109628677368,
				-0.10770497471094131,
				-1.3774389028549194
			],
			"type":"VEC3"
		},
		{
			"bufferView":1,
			"componentType":5126,
			"count":80,
			"type":"VEC3"
		},
		{
			"bufferView":2,
			"componentType":5126,
			"count":80,
			"type":"VEC2"
		},
		{
			"bufferView":3,
			"componentType":5123,
			"count":180,
			"type":"SCALAR"
		},
		{
			"bufferView":4,
			"componentType":5126,
			"count":248,
			"max":[
				1.6832250356674194,
				9.82478141784668,
				2.0919923782348633
			],
			"min":[
				-2.0281856060028076,
				-0.09833574295043945,
				-2.1108388900756836
			],
			"type":"VEC3"
		},
		{
			"bufferView":5,
			"componentType":5126,
			"count":248,
			"type":"VEC3"
		},
		{
			"bufferView":6,
			"componentType":5126,
			"count":248,
			"type":"VEC2"
		},
		{
			"bufferView":7,
			"componentType":5123,
			"count":372,
			"type":"SCALAR"
		}
	],
	"bufferViews":[
		{
			"buffer":0,
			"byteLength":960,
			"byteOffset":0,
			"target":34962
		},
		{
			"buffer":0,
			"byteLength":960,
			"byteOffset":960,
			"target":34962
		},
		{
			"buffer":0,
			"byteLength":640,
			"byteOffset":1920,
			"target":34962
		},
		{
			"buffer":0,
			"byteLength":360,
			"byteOffset":2560,
			"target":34963
		},
		{
			"buffer":0,
			"byteLength":2976,
			"byteOffset":2920,
			"target":34962
		},
		{
			"buffer":0,
			"byteLength":2976,
			"byteOffset":5896,
			"target":34962
		},
		{
			"buffer":0,
			"byteLength":1984,
			"byteOffset":8872,
			"target":34962
		},
		{
			"buffer":0,
			"byteLength":744,
			"byteOffset":10856,
			"target":34963
		}
	],
	"samplers":[
		{
			"magFilter":9728,
			"minFilter":9984
		}
	],
	"buffers":[
		{
			"byteLength":11600,
			"uri":"natives.bin"
		}
	]
}
